# xmcd
#
# Track frame offsets:
#	150
#	16946
#	33632
#	51545
#	66678
#	88674
#	109641
#	124610
#	142806
#	156448
#	175990
#	193277
#	206653
#	224748
#	241405
#	255591
#	271076
#	284129
#	299587
#	314332
#	327825
#
# Disc length: 4685 seconds
#
# Revision: 0
# Processed by: cddbd v1.5.2PL0 Copyright (c) Steve Scherf et al.
# Submitted via: EasyCDDAExtractor 8.2.1.1
#
DISCID=59124b15
DTITLE=Various Artist - CMC The Best Of Country Music Channel 2008
DYEAR=2008
DGENRE=Country
TTITLE0=Brooks and Dunn - Proud Of The House We Built
TTITLE1=Carrie Underwood - So Small
TTITLE2=Gary Allan - Watching Airplanes
TTITLE3=Taylor Swift - Teardrops On My Guitar
TTITLE4=Brad Paisley - Online
TTITLE5=Sugarland - Stay
TTITLE6=Dierks Bentley - Free And Easy (Down The Road I Go)
TTITLE7=Miranda Lambert - Famous In A Small Town
TTITLE8=Emerson Drive - A Good Man
TTITLE9=Rascal Flatts - Take Me There
TTITLE10=Willie Nelson - Gravedigger
TTITLE11=Joe Nichols - Another Side Of You
TTITLE12=Billy Ray Cyrus - Ready, Set, Don't Go
TTITLE13=Trisha Yearwood - Heaven, Heartache And The Power Of Love
TTITLE14=Trace Adkins - I Got My Game On
TTITLE15=Josh Turner - Firecracker
TTITLE16=Danielle Peck - Bad For Me
TTITLE17=Bucky Covington - A Different World
TTITLE18=Gretchen Wilson - You Don't Have To Go Home
TTITLE19=Terri Clark - Dirty Girl
TTITLE20=Eric Church - Lightning
EXTD=
EXTT0=
EXTT1=
EXTT2=
EXTT3=
EXTT4=
EXTT5=
EXTT6=
EXTT7=
EXTT8=
EXTT9=
EXTT10=
EXTT11=
EXTT12=
EXTT13=
EXTT14=
EXTT15=
EXTT16=
EXTT17=
EXTT18=
EXTT19=
EXTT20=
PLAYORDER=
